<?xml version="1.0" standalone="no"?>
<!DOCTYPE svg PUBLIC "-//W3C//DTD SVG 20010904//EN"
 "http://www.w3.org/TR/2001/REC-SVG-20010904/DTD/svg10.dtd">
<svg version="1.0" xmlns="http://www.w3.org/2000/svg"
 width="848.000000pt" height="848.000000pt" viewBox="0 0 848.000000 848.000000"
 preserveAspectRatio="xMidYMid meet">
<metadata>
Created by potrace 1.11, written by Peter Selinger 2001-2013
</metadata>
<g transform="translate(0.000000,848.000000) scale(0.100000,-0.100000)"
fill="#000000" stroke="none">
<path d="M1912 8316 c-12 -6 -54 -56 -93 -111 -235 -332 -379 -541 -379 -551
0 -10 233 -11 365 0 67 5 536 18 1125 31 578 12 686 15 880 20 113 3 282 8
375 10 754 17 810 19 837 30 16 6 29 28 118 190 18 33 44 77 57 97 12 21 23
39 23 42 0 6 111 201 121 210 5 6 9 18 9 28 0 16 -87 17 -1707 16 -1243 0
-1714 -3 -1731 -12z"/>
<path d="M5607 8308 c-14 -13 -36 -43 -49 -68 -14 -25 -73 -131 -131 -237 -59
-105 -107 -196 -107 -202 0 -6 -4 -11 -9 -11 -5 0 -14 -15 -22 -32 -7 -18 -15
-35 -18 -38 -4 -3 -16 -25 -29 -50 -12 -25 -27 -52 -32 -60 -6 -8 -31 -53 -56
-100 -50 -92 -96 -174 -127 -230 -11 -19 -30 -53 -42 -75 -12 -22 -34 -60 -47
-85 -14 -25 -34 -61 -44 -80 -11 -19 -22 -37 -25 -40 -3 -3 -12 -20 -20 -37
-8 -18 -17 -33 -21 -33 -5 0 -8 -4 -8 -9 0 -8 -21 -46 -132 -241 -11 -19 -32
-55 -47 -80 -14 -25 -35 -61 -46 -80 -11 -20 -49 -86 -85 -148 -36 -62 -72
-125 -80 -140 -8 -15 -28 -49 -44 -75 -27 -48 -35 -94 -21 -136 4 -12 33 -67
66 -122 32 -54 59 -104 59 -109 0 -6 3 -10 8 -10 4 0 15 -17 25 -37 10 -21 23
-47 30 -58 15 -25 68 -118 95 -165 42 -75 64 -110 70 -110 4 0 17 15 29 33 17
25 334 548 445 735 27 45 30 49 105 172 32 52 60 100 63 105 3 6 12 21 21 35
21 32 176 285 199 325 10 17 36 59 58 95 39 62 90 146 141 234 13 22 28 43 32
44 5 2 9 8 9 12 0 5 79 140 175 300 96 160 175 296 175 301 0 5 4 9 8 9 5 0
16 15 25 33 10 17 26 46 37 62 11 17 25 41 32 55 7 14 15 27 19 30 3 3 19 25
34 50 68 109 141 216 152 223 19 12 16 34 -9 51 -18 13 -82 15 -429 16 l-407
0 -25 -22z"/>
<path d="M6466 8138 c-55 -113 -127 -249 -136 -258 -3 -3 -18 -32 -35 -65 -16
-32 -36 -65 -42 -73 -7 -7 -13 -17 -13 -22 0 -5 -21 -46 -48 -92 -26 -46 -54
-96 -62 -113 -8 -16 -17 -32 -20 -35 -3 -3 -12 -19 -21 -35 -50 -96 -75 -141
-84 -147 -5 -4 -6 -8 -1 -8 5 0 4 -6 -1 -12 -6 -7 -26 -42 -45 -78 -20 -36
-47 -85 -61 -110 -13 -25 -40 -74 -59 -110 -19 -36 -51 -94 -71 -130 -49 -88
-103 -189 -192 -355 -26 -49 -51 -94 -55 -100 -4 -5 -31 -55 -60 -110 -29 -55
-59 -107 -66 -116 -8 -8 -14 -23 -14 -31 0 -9 -3 -18 -7 -20 -5 -1 -17 -19
-27 -38 -151 -277 -162 -298 -200 -365 -16 -27 -49 -88 -73 -135 -25 -47 -49
-89 -53 -95 -10 -13 -72 -125 -147 -265 -17 -33 -8 -74 28 -127 16 -23 29 -44
29 -46 0 -4 120 -213 161 -282 10 -16 37 -64 59 -105 45 -85 75 -124 89 -116
5 4 23 30 39 59 15 28 39 70 52 92 12 22 34 60 48 85 13 25 28 50 32 55 4 6
25 42 45 80 21 39 41 72 44 75 3 3 15 23 26 45 11 22 22 42 25 45 3 3 10 14
16 25 40 74 81 147 137 241 35 60 66 116 70 124 4 8 16 29 27 45 11 17 23 37
27 45 18 39 208 366 216 371 5 3 9 10 9 15 0 9 49 96 109 197 16 26 29 50 29
52 0 3 11 22 23 43 26 41 64 107 111 192 16 30 32 57 35 60 4 3 15 23 26 45
11 22 23 42 28 43 4 2 7 7 7 11 0 4 41 78 90 164 50 86 90 160 90 166 0 5 3
11 8 13 9 4 92 147 92 159 0 5 4 9 9 9 5 0 13 9 16 20 4 12 65 122 136 245 72
123 132 236 135 251 5 25 -30 86 -93 164 -70 88 -223 293 -223 300 0 4 -4 10
-9 12 -5 2 -36 38 -70 81 -34 42 -66 77 -71 77 -5 0 -34 -51 -64 -112z"/>
<path d="M1444 7595 c-12 -9 -11 -16 6 -50 11 -22 25 -47 30 -55 19 -29 74
-125 94 -165 19 -37 294 -519 317 -555 10 -17 105 -185 152 -270 17 -30 41
-72 54 -92 13 -21 23 -40 23 -42 0 -3 20 -39 45 -79 25 -41 45 -80 45 -86 0
-6 4 -11 9 -11 5 0 11 -8 14 -17 3 -10 20 -40 36 -68 17 -27 34 -57 38 -65 4
-8 20 -37 36 -65 35 -60 61 -104 95 -165 29 -52 151 -265 169 -295 7 -11 16
-27 20 -35 4 -8 35 -64 70 -123 35 -60 63 -110 63 -112 0 -5 46 -83 79 -135 8
-14 16 -27 16 -30 0 -3 5 -12 10 -20 34 -54 425 -744 425 -751 0 -5 5 -9 10
-9 6 0 10 -4 10 -9 0 -5 131 -237 290 -516 160 -279 290 -511 290 -516 0 -5 4
-9 10 -9 5 0 9 -3 8 -7 -1 -5 5 -19 14 -33 35 -55 88 -152 88 -161 0 -5 5 -9
10 -9 6 0 10 -5 10 -10 0 -6 32 -65 70 -131 39 -66 70 -124 70 -129 0 -6 5
-10 10 -10 6 0 10 -4 10 -9 0 -5 49 -95 110 -201 61 -106 110 -194 110 -197 0
-3 8 -17 18 -31 11 -15 33 -53 50 -84 17 -32 57 -101 89 -155 32 -54 58 -101
58 -105 0 -4 6 -13 12 -19 7 -7 13 -18 13 -25 0 -23 67 -82 101 -89 43 -10
665 -11 703 -1 32 8 30 24 -15 94 -16 25 -29 50 -29 56 0 5 -6 17 -14 25 -13
15 -40 61 -93 160 -14 25 -47 82 -74 128 -27 46 -49 86 -49 90 0 4 -6 14 -14
22 -7 9 -27 41 -43 71 -67 122 -86 156 -101 173 -8 9 -11 17 -7 17 4 0 1 8 -7
18 -8 9 -29 42 -45 72 -17 30 -117 206 -223 390 -106 184 -203 353 -215 375
-13 22 -89 154 -169 294 -80 140 -146 258 -146 263 0 4 -4 8 -9 8 -5 0 -14 12
-20 28 -6 15 -23 48 -38 73 -45 75 -118 203 -122 214 -2 6 -12 21 -21 35 -9
14 -30 50 -47 80 -16 30 -73 130 -126 222 -54 92 -97 171 -97 176 0 6 -4 12
-8 14 -5 2 -15 15 -23 30 -14 28 -134 237 -156 273 -7 11 -18 32 -25 48 -7 15
-16 27 -20 27 -4 0 -8 5 -8 11 0 5 -25 52 -55 104 -30 51 -55 98 -55 104 0 6
-3 11 -8 11 -4 0 -18 21 -32 48 -25 48 -70 126 -99 172 -8 14 -16 27 -16 30 0
3 -8 16 -17 30 -9 14 -55 95 -103 180 -49 85 -98 171 -110 190 -12 19 -35 60
-52 90 -65 119 -87 156 -104 182 -11 14 -19 28 -19 31 0 2 -30 56 -66 118 -91
156 -109 204 -95 250 6 20 23 45 39 55 26 18 66 19 932 19 725 0 911 3 936 13
24 10 43 35 85 110 29 53 95 170 145 259 101 178 112 202 92 204 -82 8 -544
19 -1403 34 -287 5 -612 11 -1070 20 -143 3 -372 8 -510 10 -137 3 -294 6
-349 8 -56 1 -104 -2 -112 -8z"/>
<path d="M2964 6707 c-17 -9 9 -63 129 -265 20 -35 37 -67 37 -73 0 -5 5 -9
10 -9 6 0 10 -6 10 -14 0 -7 9 -25 21 -40 11 -14 17 -26 12 -26 -4 0 -3 -4 3
-8 6 -4 21 -25 33 -47 32 -59 88 -157 191 -335 40 -69 84 -145 98 -169 14 -25
37 -65 52 -90 14 -26 29 -53 33 -61 4 -8 16 -28 27 -45 10 -16 25 -41 33 -55
32 -58 72 -127 131 -229 34 -59 66 -114 69 -122 4 -8 15 -27 25 -44 11 -16
108 -185 217 -375 109 -190 206 -358 216 -375 11 -16 22 -37 26 -45 4 -8 43
-78 88 -155 45 -77 95 -163 111 -192 89 -159 148 -258 156 -261 4 -2 8 -10 8
-18 0 -8 9 -27 19 -42 19 -26 240 -412 254 -442 4 -8 16 -28 27 -45 11 -16 23
-37 27 -45 4 -8 24 -43 45 -78 21 -34 38 -64 38 -66 0 -3 27 -50 60 -106 33
-56 60 -104 60 -107 0 -2 14 -24 30 -48 17 -24 30 -47 30 -51 0 -6 72 -131
100 -174 6 -8 13 -22 17 -30 6 -14 113 -199 133 -230 5 -8 22 -39 37 -67 15
-29 31 -53 35 -53 4 0 8 -9 8 -20 0 -11 4 -20 8 -20 4 0 13 -12 19 -27 6 -16
30 -61 53 -101 50 -89 59 -138 32 -169 -30 -35 -61 -42 -228 -48 -87 -3 -160
-8 -162 -10 -3 -2 -13 0 -23 6 -11 5 -19 6 -19 2 0 -9 -142 -9 -157 0 -6 4
-13 3 -17 0 -8 -8 -173 -6 -187 3 -5 3 -9 2 -9 -3 0 -9 -187 -9 -196 0 -3 3
-17 2 -30 -3 -14 -6 -26 -6 -29 1 -4 5 -12 6 -18 2 -14 -9 -343 -7 -357 2 -6
3 -10 3 -10 -2 0 -9 -187 -9 -196 0 -3 3 -17 2 -30 -3 -15 -6 -26 -6 -30 1 -3
6 -10 6 -17 1 -7 -5 -32 -7 -56 -6 -24 2 -58 -3 -76 -10 -32 -14 -85 -72 -85
-94 0 -6 -3 -12 -7 -14 -5 -1 -18 -21 -29 -43 -12 -22 -47 -85 -79 -140 -32
-55 -70 -122 -85 -150 -14 -27 -41 -76 -59 -108 -18 -32 -31 -60 -29 -63 3 -2
101 -6 219 -9 118 -3 291 -7 384 -10 234 -6 599 -15 850 -20 116 -3 300 -7
410 -10 110 -3 281 -8 380 -10 555 -13 681 -16 895 -20 129 -3 252 -7 273 -11
21 -3 47 -2 57 1 35 11 30 23 -59 165 -8 14 -14 28 -13 33 1 4 -2 7 -8 7 -5 0
-10 4 -10 8 0 5 -48 92 -106 193 -58 101 -116 202 -128 224 -13 22 -67 117
-121 210 -54 94 -108 188 -121 210 -12 22 -55 96 -94 165 -40 69 -86 150 -103
180 -17 30 -41 72 -54 92 -13 21 -23 42 -23 47 0 5 -6 16 -13 23 -7 7 -29 41
-48 75 -37 68 -171 301 -228 398 -20 33 -36 62 -36 65 0 3 -8 16 -17 30 -18
29 -287 499 -314 550 -11 19 -22 37 -26 38 -5 2 -8 9 -8 17 0 7 -7 18 -15 25
-9 7 -13 15 -11 18 3 3 -3 17 -13 31 -15 22 -169 287 -238 411 -11 19 -46 80
-78 135 -32 55 -71 125 -88 155 -17 30 -38 67 -49 82 -10 14 -18 28 -18 30 0
3 -48 87 -106 189 -59 101 -120 209 -137 239 -17 30 -48 84 -69 119 -21 34
-38 64 -38 66 0 1 -29 52 -64 113 -36 61 -76 132 -90 157 -56 98 -77 135 -154
268 -45 75 -78 137 -74 137 4 0 2 4 -4 8 -12 8 -214 360 -214 373 0 5 -4 9
-10 9 -5 0 -10 4 -10 9 0 5 -23 49 -51 98 -29 48 -65 113 -82 143 -16 30 -37
63 -45 73 -8 9 -11 17 -6 17 5 0 4 4 -2 8 -5 4 -20 24 -33 45 -12 20 -33 43
-44 49 -25 14 -718 19 -743 5z"/>
<path d="M3182 4027 c-10 -13 -113 -191 -245 -422 -44 -77 -88 -153 -98 -170
-10 -16 -33 -58 -51 -92 -18 -35 -36 -63 -40 -63 -5 0 -8 -7 -8 -15 0 -9 -5
-21 -10 -28 -6 -7 -112 -190 -236 -407 -392 -686 -469 -820 -488 -853 -10 -18
-88 -156 -174 -307 -86 -151 -161 -283 -167 -292 -5 -10 -26 -47 -45 -84 -19
-36 -41 -70 -47 -76 -7 -6 -13 -14 -13 -17 0 -4 -29 -58 -65 -121 -36 -63 -65
-125 -65 -138 0 -19 47 -100 70 -122 3 -3 39 -54 80 -115 40 -60 77 -112 82
-113 4 -2 8 -8 8 -13 0 -5 27 -47 60 -93 33 -47 60 -89 60 -95 0 -6 4 -11 9
-11 5 0 21 -19 34 -43 49 -83 69 -84 110 -4 15 29 46 88 71 132 24 44 56 103
70 130 14 28 48 91 74 140 27 50 68 126 92 170 23 44 59 112 80 150 76 141
114 211 137 255 12 25 27 52 32 60 28 45 181 332 181 340 0 4 3 10 8 12 4 2
23 33 42 69 63 119 167 310 241 442 22 38 39 70 39 72 0 2 17 34 38 72 56 99
134 243 224 413 28 52 71 133 96 180 24 47 57 108 72 135 142 260 144 266 102
345 -52 100 -139 259 -157 288 -6 9 -28 49 -50 87 -22 39 -48 84 -58 100 -10
17 -20 38 -23 48 -4 9 -10 17 -15 17 -5 0 -9 7 -9 15 0 21 -35 38 -48 22z"/>
<path d="M3691 3128 c-8 -12 -57 -94 -109 -183 -52 -88 -131 -221 -175 -295
-44 -74 -85 -144 -91 -155 -6 -11 -24 -39 -39 -62 -15 -24 -27 -45 -27 -48 0
-4 -13 -26 -30 -50 -16 -24 -30 -45 -30 -47 0 -4 -184 -313 -202 -340 -7 -9
-23 -37 -37 -62 -14 -25 -48 -82 -76 -128 -27 -46 -54 -92 -61 -103 -6 -11
-75 -124 -152 -252 -78 -128 -142 -237 -142 -242 0 -6 -4 -11 -9 -11 -5 0 -18
-19 -30 -42 -12 -24 -30 -56 -41 -73 -11 -16 -26 -43 -35 -60 -8 -16 -24 -43
-34 -60 -11 -16 -26 -41 -33 -55 -39 -70 -164 -275 -170 -278 -5 -2 -8 -9 -8
-16 0 -6 -7 -21 -15 -31 -9 -11 -45 -65 -81 -119 -36 -55 -76 -112 -89 -128
-28 -33 -24 -54 10 -60 13 -3 1029 -5 2257 -4 l2233 1 36 22 c24 15 61 62 110
135 40 62 76 115 79 118 3 3 18 23 35 45 16 22 35 46 42 53 7 7 13 17 13 21 0
4 8 16 18 27 46 50 183 266 178 280 -3 8 -10 13 -15 10 -13 -9 -134 -16 -331
-21 -274 -7 -512 -14 -665 -21 -77 -3 -266 -8 -420 -10 -687 -11 -846 -14
-1100 -18 -148 -2 -355 -7 -460 -11 -281 -12 -665 -12 -704 -2 -43 11 -57 25
-69 70 -13 46 -6 88 20 136 11 20 30 54 41 76 12 22 27 43 32 47 6 4 7 8 2 8
-4 0 4 18 18 40 14 22 38 64 54 92 33 62 127 226 141 248 8 14 93 160 163 283
15 27 54 95 86 151 59 102 70 122 131 231 19 33 37 62 40 65 3 3 11 16 17 30
7 14 32 61 57 104 52 94 53 91 -33 234 -33 57 -61 107 -61 112 0 4 -7 13 -15
20 -8 7 -15 21 -15 30 0 10 -4 20 -8 22 -5 2 -46 69 -93 150 -46 82 -86 148
-89 148 -3 0 -11 -10 -19 -22z"/>
</g>
</svg>
