<?xml version="1.0" encoding="UTF-8" standalone="no"?>
<svg
   xmlns:dc="http://purl.org/dc/elements/1.1/"
   xmlns:cc="http://creativecommons.org/ns#"
   xmlns:rdf="http://www.w3.org/1999/02/22-rdf-syntax-ns#"
   xmlns:svg="http://www.w3.org/2000/svg"
   xmlns="http://www.w3.org/2000/svg"
   xmlns:sodipodi="http://sodipodi.sourceforge.net/DTD/sodipodi-0.dtd"
   xmlns:inkscape="http://www.inkscape.org/namespaces/inkscape"
   inkscape:version="1.0 (4035a4fb49, 2020-05-01)"
   height="105.78"
   width="75.379997"
   sodipodi:docname="logo.svg"
   version="1.1"
   viewBox="0 0 75.379996 105.78"
   data-name="Layer 1"
   id="Layer_1">
  <metadata
     id="metadata174">
    <rdf:RDF>
      <cc:Work
         rdf:about="">
        <dc:format>image/svg+xml</dc:format>
        <dc:type
           rdf:resource="http://purl.org/dc/dcmitype/StillImage" />
        <dc:title>group-logo-v1.0</dc:title>
      </cc:Work>
    </rdf:RDF>
  </metadata>
  <sodipodi:namedview
     inkscape:current-layer="layer1"
     inkscape:window-maximized="1"
     inkscape:window-y="24"
     inkscape:window-x="0"
     inkscape:cy="52.092757"
     inkscape:cx="4.1728429"
     inkscape:zoom="4.7669321"
     inkscape:pagecheckerboard="true"
     fit-margin-bottom="0"
     fit-margin-right="0"
     fit-margin-left="0"
     fit-margin-top="0"
     showgrid="false"
     id="namedview172"
     inkscape:window-height="1056"
     inkscape:window-width="1920"
     inkscape:pageshadow="2"
     inkscape:pageopacity="0"
     guidetolerance="10"
     gridtolerance="10"
     objecttolerance="10"
     borderopacity="1"
     bordercolor="#666666"
     pagecolor="#ffffff" />
  <defs
     id="defs113">
    <style
       id="style111">.cls-1{font-size:50px;font-family:Helvetica-Bold, Helvetica;font-weight:700;}.cls-2{stroke:#000;stroke-miterlimit:10;}.cls-3{fill:#fe6600;}.cls-4{fill:#fefefe;}.cls-5{fill:#fff;}.cls-6{fill:#121212;}</style>
  </defs>
  <title
     id="title115">group-logo-v1.0</title>
  <g
     sodipodi:insensitive="true"
     inkscape:label="Layer 1"
     id="layer1"
     inkscape:groupmode="layer">
    <path
       id="path139"
       d="m 71.95,10.16 a 0.87,0.87 0 0 1 0,1.07 q -2.36,4.09 -4.72,8.2 l -4.38,7.64 q -2.72,4.74 -5.43,9.46 l -4.75,8.27 -2.51,4.39 C 49.79,49.1 49.77,48.66 49.48,48.5 v 0 c -0.72,-1.53 -1.67,-2.93 -2.47,-4.4 -0.44,-0.8 -0.9,-1.59 -1.38,-2.37 a 1,1 0 0 1 0,-1.15 q 3.82,-6.88 7.61,-13.79 c 1.87,-3.4 3.7,-6.82 5.56,-10.23 2.16,-4 4.35,-7.9 6.5,-11.86 a 17.08,17.08 0 0 0 0.69,-1.59 c 0.16,-0.38 0.35,-0.33 0.56,-0.05 1.82,2.33 3.67,4.67 5.4,7.1 z" />
    <path
       id="path143"
       d="m 65.73,2.26 c 0.17,0.27 -0.3,0.59 -0.49,0.87 -2.95,4.39 -5.55,9 -8.31,13.52 -4.29,7 -8.53,14 -12.8,21.07 -0.44,0.72 -0.47,0.72 -0.9,0 -1.25,-2.18 -2.47,-4.38 -3.75,-6.53 a 1.89,1.89 0 0 1 0,-2.15 c 3.07,-5.31 6.15,-10.61 9.1,-16 1.92,-3.4999995 3.89,-7 5.8,-10.47 a 1.13,1.13 0 0 1 1.18,-0.7 c 1.45,0.05 2.91,0 4.36,0 h 4.66 c 0.44,0.02 0.96,0.08 1.15,0.39 z" />
    <path
       id="path147"
       d="m 51.41,1.89 h 0.29 l -2.18,3.86 c -0.56,1 -1.13,2 -1.67,3 a 0.92,0.92 0 0 1 -0.9,0.55 c -6.19,0.1400005 -12.39,0.3200005 -18.58,0.4700005 -4.45,0.11 -8.91,0.16 -13.36,0.2999995 -3.41,0.1 -6.82,0.11 -10.23,0.38 a 10.21,10.21 0 0 0 -2.07,0 1.21,1.21 0 0 1 0.31,-0.6499995 C 4.67,7.42 6.34,5.04 8.02,2.65 A 1.56,1.56 0 0 1 9.4,1.88 Z"
       class="cls-3" />
    <path
       id="path145"
       d="m 52.72,81.69 c 0.66,1.15 0.65,1.16 -0.69,1.16 -2.44,0 -4.9,0 -7.34,0 a 1.79,1.79 0 0 1 -1.76,-1 q -19,-33.26 -38,-66.52 C 4.23,14.09 3.54,12.84 2.82,11.6 2.54,11.1 2.62,10.92 3.21,10.93 l 18,0.36 13.15,0.23 q 5.41,0.11 10.83,0.25 c 0.87,0 0.88,0.07 0.44,0.85 -1.08,1.92 -2.2,3.82 -3.24,5.76 a 1.44,1.44 0 0 1 -1.47,0.8 h -7.7 V 19.11 H 20.5 a 11.66,11.66 0 0 0 -1.3,0.07 1.25,1.25 0 0 0 -1.19,1.83 4.52,4.52 0 0 0 0.46,1 z"
       class="cls-3" />
    <path
       id="path137"
       d="m 71.55,92.36 c 0.24,0.41 0.76,0.87 0.53,1.27 -0.23,0.4 -0.85,0.07 -1.3,0.06 -6.15,-0.13 -12.3,-0.28 -18.45,-0.43 L 39.4,92.95 28.8,92.68 28.52,92.61 c 0.49,-0.87 1,-1.72 1.42,-2.55 0.79,-1.39 1.61,-2.76 2.37,-4.16 a 1.83,1.83 0 0 1 1.81,-1.06 q 8.51,0 17,0 c 1.31,0 2.61,-0.08 3.92,-0.14 1.31,-0.06 1.88,-0.81 1.19,-2.08 -1.08,-2 -2.22,-4 -3.36,-5.94 L 22.02,23.07 21.92,22.88 c -0.44,-0.77 -0.38,-0.87 0.54,-0.87 h 6.11 c 2.8,0 2.42,-0.32 3.92,2.29 q 19.53,34.03 39.06,68.06 z"
       class="cls-3" />
    <path
       id="path157"
       d="m 29.16,63.06 a 4.5,4.5 0 0 1 0.21,0.58 5.57,5.57 0 0 1 -0.67,1.55 q -2.08,3.9 -4.17,7.82 l -7.16,13.1 q -2,3.65 -3.95,7.32 c -1.52,2.82 -3,5.65 -4.56,8.47 -0.36,0.67 -0.54,0.66 -1,0 L 4.39,96.84 c -0.5,-0.73 -1,-1.47 -1.53,-2.18 A 1,1 0 0 1 2.81,93.39 l 3.53,-6.14 4.55,-8 q 2.8,-4.89 5.6,-9.78 l 4.79,-8.41 c 1,-1.73 2,-3.47 3,-5.21 0.25,-0.44 0.46,-0.63 0.79,-0.08 1.4,2.45 2.82,4.83 4.09,7.29 z" />
    <path
       id="path141"
       d="m 71.97,94.24 c 0.1,0.18 0,0.33 -0.13,0.46 -0.87,1.27 -1.71,2.56 -2.64,3.79 a 34.25,34.25 0 0 0 -2.43,3.52 c -0.58,1 -1.55,0.89 -2.45,1 a 2.43,2.43 0 0 1 -0.36,0 H 10.57 10.35 c -0.41,0 -0.93,0 -1.15,-0.27 -0.22,-0.27 0.28,-0.59 0.47,-0.85 2.7,-3.82 4.87,-8 7.31,-11.94 2.79,-4.56 5.51,-9.16 8.25,-13.75 1.89,-3.16 3.76,-6.33 5.64,-9.5 a 2.58,2.58 0 0 1 0.23,-0.27 l 3.13,5.44 c 0.35,0.6 0.68,1.22 1.05,1.81 a 1.11,1.11 0 0 1 0,1.28 c -1.24,2.13 -2.44,4.27 -3.66,6.39 -1.46,2.55 -2.93,5.09 -4.39,7.64 -0.68,1.19 -1.35,2.39 -2,3.6 a 2,2 0 0 0 -0.16,2 c 0.36,0.64 1,0.67 1.65,0.66 3,0 5.91,0 8.86,-0.18 2.54,-0.13 5.09,0 7.62,-0.13 2.69,-0.16 5.38,0 8.06,-0.15 2.33,-0.14 4.65,0 7,-0.13 3.33,-0.15 6.67,-0.19 10,-0.32 a 23.56,23.56 0 0 0 3.39,-0.19 c 0.12,0.01 0.26,-0.03 0.32,0.09 z" />
  </g>
</svg>
